<svg viewBox="0 0 80 90" xmlns="http://www.w3.org/2000/svg" id="teshuva-mascot-svg">
  <!-- Halo -->
  <ellipse cx="40" cy="10" rx="18" ry="6" fill="none" stroke="#FCD34D" stroke-width="3.5" stroke-dasharray="4 2"/>

  <!-- Antenna -->
  <line x1="40" y1="16" x2="40" y2="22" stroke="#6D28D9" stroke-width="2.5" stroke-linecap="round"/>
  <circle cx="40" cy="14" r="3.5" fill="#FCD34D"/>

  <!-- Body -->
  <rect x="12" y="22" width="56" height="52" rx="16" fill="#7C3AED"/>
  <rect x="14" y="24" width="52" height="48" rx="14" fill="#8B5CF6"/>

  <!-- Left eye white -->
  <circle cx="29" cy="38" r="10" fill="white"/>
  <!-- Right eye white -->
  <circle cx="51" cy="38" r="10" fill="white"/>

  <!-- Left pupil -->
  <circle cx="30" cy="39" r="6" fill="#1E1B4B"/>
  <!-- Right pupil -->
  <circle cx="52" cy="39" r="6" fill="#1E1B4B"/>

  <!-- Eye shine -->
  <circle cx="31.5" cy="36.5" r="2.2" fill="white"/>
  <circle cx="53.5" cy="36.5" r="2.2" fill="white"/>

  <!-- Blush left -->
  <ellipse cx="20" cy="46" rx="6" ry="3.5" fill="#F9A8D4" opacity="0.6"/>
  <!-- Blush right -->
  <ellipse cx="60" cy="46" rx="6" ry="3.5" fill="#F9A8D4" opacity="0.6"/>

  <!-- Smile -->
  <path d="M 27 52 Q 40 62 53 52" stroke="white" stroke-width="2.5" fill="none" stroke-linecap="round"/>

  <!-- Heart on chest -->
  <path d="M 40 66
           C 40 63.5, 36 61, 36 64
           C 36 66.5, 40 69.5, 40 69.5
           C 40 69.5, 44 66.5, 44 64
           C 44 61, 40 63.5, 40 66 Z"
        fill="#FCA5A5"/>
</svg>
